<svg xmlns="http://www.w3.org/2000/svg" viewBox="0 0 830.9 233.73"><defs><style>.cls-1{fill:#00829b;}</style></defs><title>Asset 8</title><g id="Layer_2" data-name="Layer 2"><g id="Layer_1-2" data-name="Layer 1"><path class="cls-1" d="M346.84,54.85q7.38,7.47,7.39,20.85v67.38h-24V79.21q0-8.26-3.09-11.61t-9.07-3.34A18.44,18.44,0,0,0,307,67.87a41.94,41.94,0,0,0-9.64,10.46v64.75h-24V50h20.78L296,62.15q12.17-14.79,30.13-14.78Q339.44,47.37,346.84,54.85Z"/><path class="cls-1" d="M455.63,103.49H393.49Q394.62,117,401,122.85t16.84,5.8a37.26,37.26,0,0,0,12.36-2,59,59,0,0,0,12.35-6.25l9.92,12.84a59.18,59.18,0,0,1-36.68,12.5q-22.65,0-34.91-13T368.6,97.16a60.45,60.45,0,0,1,5.24-25.6A41.23,41.23,0,0,1,389,53.79q9.92-6.42,23.58-6.42,20.78,0,32.19,12.4t11.42,34.57C456.19,95.52,456,98.56,455.63,103.49ZM432.42,87.83q0-24.45-19.28-24.45-8.79,0-13.75,6.07t-5.9,19.44h38.93Z"/><path class="cls-1" d="M539.44,58.45l-9.36,13.2q-12.74-7.56-24.89-7.57c-4.74,0-8.42.86-11,2.55a7.77,7.77,0,0,0-3.93,6.78,8.22,8.22,0,0,0,1.68,5.28q1.68,2.1,6.09,4a103.58,103.58,0,0,0,13,4.14q16.1,4.05,23.87,10.73t7.76,18.65q0,13.91-12,21.73t-29.76,7.83a66.71,66.71,0,0,1-22.18-3.52,54.71,54.71,0,0,1-17.31-9.68l12-12.67Q486.29,129,500.32,129q8.06,0,12.83-3a9.29,9.29,0,0,0,4.77-8.27,10.52,10.52,0,0,0-1.78-6.42q-1.78-2.37-6.36-4.22a140.93,140.93,0,0,0-14.32-4.49q-15.16-3.87-22.27-10.82a23.2,23.2,0,0,1-7.12-17.33,22.13,22.13,0,0,1,4.77-13.9,31.56,31.56,0,0,1,13.48-9.67,52.76,52.76,0,0,1,19.93-3.52Q524.28,47.37,539.44,58.45Z"/><path class="cls-1" d="M625.11,58.45l-9.36,13.2Q603,64.09,590.86,64.08c-4.75,0-8.43.86-11.05,2.55a7.77,7.77,0,0,0-3.93,6.78,8.17,8.17,0,0,0,1.69,5.28q1.68,2.1,6.08,4a103.83,103.83,0,0,0,13,4.14q16.1,4.05,23.86,10.73t7.77,18.65q0,13.91-12,21.73t-29.76,7.83a66.67,66.67,0,0,1-22.18-3.52,54.6,54.6,0,0,1-17.31-9.68l12-12.67Q572,129,586,129q8,0,12.82-3a9.29,9.29,0,0,0,4.77-8.27,10.45,10.45,0,0,0-1.78-6.42Q600,109,595.44,107.1a140.1,140.1,0,0,0-14.32-4.49Q566,98.74,558.85,91.79a23.23,23.23,0,0,1-7.11-17.33,22.13,22.13,0,0,1,4.77-13.9A31.44,31.44,0,0,1,570,50.89a52.73,52.73,0,0,1,19.93-3.52Q609.94,47.37,625.11,58.45Z"/><path class="cls-1" d="M720.41,143.08H699.63l-1.31-13a35.55,35.55,0,0,1-12.82,11.78,37.25,37.25,0,0,1-17.5,3.88q-13.29,0-20.49-7.66t-7.21-21.2V50h24v64q0,7.92,2.9,11.26t9.26,3.34q11.42,0,20-13.2V50h24Z"/><path class="cls-1" d="M809,58.45l-9.36,13.2q-12.72-7.56-24.89-7.57c-4.74,0-8.42.86-11,2.55a7.77,7.77,0,0,0-3.93,6.78,8.22,8.22,0,0,0,1.68,5.28q1.7,2.1,6.09,4a103.58,103.58,0,0,0,13,4.14q16.1,4.05,23.87,10.73t7.76,18.65q0,13.91-12,21.73t-29.76,7.83a66.67,66.67,0,0,1-22.18-3.52,54.49,54.49,0,0,1-17.31-9.68l12-12.67q12.9,9.16,27,9.15,8,0,12.82-3a9.29,9.29,0,0,0,4.77-8.27,10.45,10.45,0,0,0-1.78-6.42q-1.77-2.37-6.36-4.22A140.1,140.1,0,0,0,765,102.61q-15.16-3.87-22.27-10.82a23.23,23.23,0,0,1-7.11-17.33,22.13,22.13,0,0,1,4.77-13.9,31.44,31.44,0,0,1,13.48-9.67,52.73,52.73,0,0,1,19.93-3.52Q793.8,47.37,809,58.45Z"/><path class="cls-1" d="M827.61,28.8A6.45,6.45,0,0,1,830,31.17a6.55,6.55,0,0,1,.88,3.37,6.48,6.48,0,0,1-.87,3.32,6.19,6.19,0,0,1-2.41,2.35,7,7,0,0,1-3.43.85,6.83,6.83,0,0,1-3.39-.85,6.33,6.33,0,0,1-2.41-2.35,6.39,6.39,0,0,1-.88-3.32,6.52,6.52,0,0,1,.88-3.35,6.31,6.31,0,0,1,2.42-2.39,7.15,7.15,0,0,1,6.8,0ZM826.79,39a4.61,4.61,0,0,0,1.77-1.79,5.41,5.41,0,0,0,.63-2.63,5.49,5.49,0,0,0-.63-2.67,4.62,4.62,0,0,0-1.77-1.82,5.1,5.1,0,0,0-2.6-.66,5,5,0,0,0-2.55.66,4.72,4.72,0,0,0-1.78,1.82,5.49,5.49,0,0,0-.64,2.67,5.42,5.42,0,0,0,.64,2.63A4.68,4.68,0,0,0,821.63,39a5,5,0,0,0,2.56.64A5.19,5.19,0,0,0,826.79,39Zm-.22-4.73a2.47,2.47,0,0,1-1.12.72l1.87,2.87h-1.89l-1.49-2.57h-.58v2.57h-1.64V30.93h2c2.15,0,3.23.7,3.23,2.12A1.76,1.76,0,0,1,826.57,34.23ZM823.36,34h.73c.82,0,1.24-.32,1.24-.94s-.43-.89-1.27-.89h-.7Z"/><path class="cls-1" d="M298,182.76q5.72,4.11,5.71,12.23,0,8.65-6,12.87T282,212.08h-7.1v19.39h-7.75V178.66h14.77Q292.3,178.66,298,182.76Zm-6.08,21.12c2.37-1.64,3.55-4.57,3.55-8.82q0-5.67-3.55-8.2t-10.15-2.53h-6.93v22h6.77Q288.4,206.33,291.94,203.88Z"/><path class="cls-1" d="M334.43,190.62l-1.39,6.9a16.14,16.14,0,0,0-3.75-.46,8.19,8.19,0,0,0-6.44,2.76q-2.44,2.76-3.83,8.58v23.07h-7.5V191.08H318l.73,8.2a15.27,15.27,0,0,1,4.65-6.82,10.81,10.81,0,0,1,6.85-2.3A18.31,18.31,0,0,1,334.43,190.62Z"/><path class="cls-1" d="M371,195.83q5,5.67,5,15.41a25.31,25.31,0,0,1-2.29,11.07,17.08,17.08,0,0,1-6.6,7.44,19.33,19.33,0,0,1-10.27,2.64q-9.06,0-14.11-5.67t-5.06-15.4a25.47,25.47,0,0,1,2.29-11.08,17.19,17.19,0,0,1,6.6-7.44,19.48,19.48,0,0,1,10.36-2.64Q365.95,190.16,371,195.83Zm-25.24,15.49q0,15.39,11.09,15.4t11.08-15.48q0-15.41-11-15.41Q345.73,195.83,345.73,211.32Z"/><path class="cls-1" d="M396.3,181.08a5.86,5.86,0,0,0-1.47,4.4v5.6h10.44l-.82,5.44h-9.62v34.95h-7.5V196.52h-7.67v-5.44h7.67v-5.52a10.74,10.74,0,0,1,3.54-8.39q3.56-3.18,9.91-3.18a25.37,25.37,0,0,1,5.26.49,32.64,32.64,0,0,1,5,1.57l-2.36,5.14a19.35,19.35,0,0,0-7.5-1.53C398.91,179.66,397.27,180.13,396.3,181.08Z"/><path class="cls-1" d="M444,213.69h-27.4q.49,6.67,3.59,9.81a10.7,10.7,0,0,0,8,3.14,18.58,18.58,0,0,0,5.71-.84,23.26,23.26,0,0,0,5.46-2.68l3.26,4.21a24.65,24.65,0,0,1-15,5.06q-9,0-14-5.52t-5-15.17a27.22,27.22,0,0,1,2.16-11.15,17.67,17.67,0,0,1,6.2-7.63,16.4,16.4,0,0,1,9.5-2.76q8.56,0,13.13,5.29t4.56,14.64C444.13,211.26,444.08,212.46,444,213.69ZM436.71,208q0-6-2.53-9.12t-7.58-3.15q-9.23,0-10,12.73h20.14Z"/><path class="cls-1" d="M474.53,191.31a24.06,24.06,0,0,1,6.69,3.45L478,199.2a27,27,0,0,0-5.59-2.6,18.41,18.41,0,0,0-5.59-.85,10.37,10.37,0,0,0-5.79,1.42A4.44,4.44,0,0,0,459,201a4.39,4.39,0,0,0,2,3.83c1.33.93,3.74,1.82,7.22,2.69q7.17,1.68,10.72,4.6a9.77,9.77,0,0,1,3.55,8,10.15,10.15,0,0,1-4.94,9.12,21.87,21.87,0,0,1-12,3.14q-9.8,0-16.23-5.29l4-4.29a20.26,20.26,0,0,0,12.07,3.91,12,12,0,0,0,6.73-1.65,5.1,5.1,0,0,0,2.49-4.48,5.66,5.66,0,0,0-.9-3.34,7.27,7.27,0,0,0-3.1-2.22,44.37,44.37,0,0,0-6.44-2q-6.85-1.68-9.91-4.52a9.41,9.41,0,0,1-3.06-7.21,9.09,9.09,0,0,1,2-5.71,12.83,12.83,0,0,1,5.55-4,21.13,21.13,0,0,1,7.95-1.42A25.26,25.26,0,0,1,474.53,191.31Z"/><path class="cls-1" d="M512.24,191.31a23.93,23.93,0,0,1,6.69,3.45l-3.18,4.44a26.8,26.8,0,0,0-5.59-2.6,18.41,18.41,0,0,0-5.59-.85,10.37,10.37,0,0,0-5.79,1.42,4.44,4.44,0,0,0-2.12,3.87,4.39,4.39,0,0,0,2,3.83,23.87,23.87,0,0,0,7.22,2.69q7.17,1.68,10.72,4.6a9.75,9.75,0,0,1,3.55,8,10.15,10.15,0,0,1-4.93,9.12,21.9,21.9,0,0,1-12,3.14q-9.79,0-16.23-5.29l4-4.29A20.23,20.23,0,0,0,503,226.72a12,12,0,0,0,6.73-1.65,5.1,5.1,0,0,0,2.49-4.48,5.66,5.66,0,0,0-.9-3.34,7.27,7.27,0,0,0-3.1-2.22,44.37,44.37,0,0,0-6.44-2c-4.57-1.12-7.86-2.63-9.9-4.52a9.41,9.41,0,0,1-3.06-7.21,9,9,0,0,1,2-5.71,12.86,12.86,0,0,1,5.54-4,21.16,21.16,0,0,1,7.95-1.42A25.26,25.26,0,0,1,512.24,191.31Z"/><path class="cls-1" d="M535.87,173.07a4.51,4.51,0,0,1,1.47,3.44,4.43,4.43,0,0,1-1.47,3.42,5.49,5.49,0,0,1-3.83,1.34,5.33,5.33,0,0,1-3.75-1.34,4.43,4.43,0,0,1-1.47-3.42,4.51,4.51,0,0,1,1.47-3.44,5.19,5.19,0,0,1,3.75-1.38A5.33,5.33,0,0,1,535.87,173.07Zm0,18v40.39h-7.5V191.08Z"/><path class="cls-1" d="M578.84,195.83q5,5.67,5,15.41a25.46,25.46,0,0,1-2.29,11.07,17.08,17.08,0,0,1-6.6,7.44,19.34,19.34,0,0,1-10.28,2.64q-9,0-14.1-5.67t-5.06-15.4a25.33,25.33,0,0,1,2.29-11.08,17.19,17.19,0,0,1,6.6-7.44,19.48,19.48,0,0,1,10.36-2.64Q573.82,190.16,578.84,195.83ZM553.6,211.32q0,15.39,11.09,15.4t11.09-15.48q0-15.41-11-15.41Q553.61,195.83,553.6,211.32Z"/><path class="cls-1" d="M623,193.45q3.3,3.3,3.31,9.05v29h-7.51v-28c0-2.87-.57-4.88-1.71-6.06a6.7,6.7,0,0,0-5.05-1.76,10.19,10.19,0,0,0-6,1.84,19.42,19.42,0,0,0-4.89,5.29v28.66h-7.5V191.08h6.44l.65,6a16.45,16.45,0,0,1,5.67-5.06,15.3,15.3,0,0,1,7.46-1.84Q619.71,190.16,623,193.45Z"/><path class="cls-1" d="M668.65,225.69a5.51,5.51,0,0,0,2.7,1.8l-1.72,4.9a12,12,0,0,1-5.38-1.76,8.1,8.1,0,0,1-3-4.29q-4.32,6-12.8,6-6.36,0-10-3.37a12.39,12.39,0,0,1,1.27-18.7q4.92-3.45,14-3.45h6.6v-3c0-2.86-.73-4.91-2.2-6.13s-3.72-1.84-6.77-1.84a40,40,0,0,0-11.58,2.14l-1.87-5.13a45.66,45.66,0,0,1,14.84-2.76c5.06,0,8.83,1.16,11.34,3.49s3.75,5.63,3.75,9.92v18.48A6,6,0,0,0,668.65,225.69Zm-8.4-4.87v-9.28h-5.62q-11.91,0-11.91,8.28a7.27,7.27,0,0,0,1.88,5.44,7.59,7.59,0,0,0,5.54,1.84C654.43,227.1,657.81,225,660.25,220.82Z"/><path class="cls-1" d="M682.18,230.05a8.71,8.71,0,0,1-2.41-6.55V174.83l7.5-.84v49.36a3.92,3.92,0,0,0,.62,2.45,2.5,2.5,0,0,0,2.07.77,8,8,0,0,0,2.78-.46l2,4.9a12.81,12.81,0,0,1-6,1.38A9,9,0,0,1,682.18,230.05Z"/><path class="cls-1" d="M233.41,142.09c-.65-2.4-3-11.22-5.26-19.59L210.42,56.36c-2.24-8.38-4.6-17.19-5.25-19.6a12.42,12.42,0,0,0-8.21-8.2l-19.58-5.24L111.22,5.57,91.6.31a12.37,12.37,0,0,0-11.16,3L3.3,80.46A12.37,12.37,0,0,0,.12,90.56l-.08,0L.57,92.7h0l22.69,84.7c2.24,8.36,4.61,17.19,5.25,19.59a12.43,12.43,0,0,0,8.2,8.2l16.81,4.51,69,18.48,16.35,4.37,3.27.88a12.36,12.36,0,0,0,11.17-3l14.35-14.35,48.42-48.43c6.13-6.12,12.58-12.57,14.37-14.37A12.43,12.43,0,0,0,233.41,142.09ZM8.58,85.7,85.77,8.49a5.56,5.56,0,0,1,3.93-1L195.08,35.76a5.1,5.1,0,0,1,2.9,2.93c.65,2.42,3,11.23,5.25,19.58l20.9,77.93c1,3.68,1.76,6.6,2.13,7.93a5.46,5.46,0,0,1-1.11,3.9L148,225.23a5.38,5.38,0,0,1-3.93,1l-2.74-.73L124.43,221l-85.8-23a4.55,4.55,0,0,1-1.74-1.15,4.65,4.65,0,0,1-1.16-1.77c-.51-1.94-2.13-8-3.9-14.59L12.75,109.29c-2-7.4-4.07-15.18-5-18.53l.12,0-.49-1.36A5.73,5.73,0,0,1,8.58,85.7Z"/></g></g></svg>